<svg class="svg-icon" style="width: 2em; height: 2em;vertical-align: middle;fill: currentColor;overflow: hidden;" viewBox="0 0 1024 1024" version="1.1" xmlns="http://www.w3.org/2000/svg"><path d="M776.066919 737.105567c-30.582439-108.462598-114.785191-189.084517-214.114892-210.745601 80.668008-23.258868 139.845111-97.747281 139.845111-185.799132 0-106.600092-86.730607-193.330699-193.330699-193.330699s-193.330699 86.730607-193.330699 193.330699c0 88.192485 59.365008 162.782532 140.231558 185.913766-91.442415 20.538381-169.532933 93.066199-202.952858 193.240883-9.55716 28.67148-14.049155 60.545619-13.371988 94.731345 0.638168 31.796141 23.437319 58.567298 53.045961 62.271037 2.643671 0.332084 5.31216 0.50108 8.046829 0.50108l416.661213 0c2.70867 0 5.442157-0.163087 8.202825-0.495171 34.218816-4.050005 60.02563-34.5639 60.02563-70.989124C785.02491 781.284535 782.004247 758.199391 776.066919 737.105567zM328.467547 340.560835c0-99.250522 80.74128-179.99771 179.99771-179.99771s179.99771 80.747189 179.99771 179.99771-80.74128 179.99771-179.99771 179.99771S328.467547 439.811356 328.467547 340.560835zM723.42395 863.484147c-2.226498 0.267085-4.439996 0.404173-6.627495 0.404173L300.135241 863.888321c-2.161499 0-4.284-0.129997-6.3805-0.397082-23.085144-2.890666-40.872311-24.081396-41.3793-49.303222-0.651168-32.668304 3.619832-63.033293 12.69482-90.25235 37.916647-113.67076 135.727744-190.042951 243.394996-190.042951 115.676263 0 220.439849 85.051279 254.762663 206.833866 5.612335 19.908485 8.464001 41.783473 8.464001 65.012797C771.691921 834.916665 750.4941 860.287397 723.42395 863.484147z"  /></svg>